
<svg width="32" height="32" viewBox="0 0 32 32" fill="none" xmlns="http://www.w3.org/2000/svg">
  <rect width="32" height="32" rx="16" fill="url(#paint0_linear)" />
  <path d="M22 11H10C9.44772 11 9 11.4477 9 12V20C9 20.5523 9.44772 21 10 21H22C22.5523 21 23 20.5523 23 20V12C23 11.4477 22.5523 11 22 11Z" stroke="white" stroke-width="2" stroke-linecap="round" stroke-linejoin="round"/>
  <path d="M14.5 14.5V17.5" stroke="white" stroke-width="2" stroke-linecap="round" stroke-linejoin="round"/>
  <path d="M17.5 14.5V17.5" stroke="white" stroke-width="2" stroke-linecap="round" stroke-linejoin="round"/>
  <path d="M9 16H7.5C7.22386 16 7 16.2239 7 16.5V18.5C7 18.7761 7.22386 19 7.5 19H9" stroke="white" stroke-width="2" stroke-linecap="round" stroke-linejoin="round"/>
  <path d="M23 16H24.5C24.7761 16 25 16.2239 25 16.5V18.5C25 18.7761 24.7761 19 24.5 19H23" stroke="white" stroke-width="2" stroke-linecap="round" stroke-linejoin="round"/>
  <defs>
    <linearGradient id="paint0_linear" x1="0" y1="0" x2="32" y2="32" gradientUnits="userSpaceOnUse">
      <stop stop-color="#0066CC"/>
      <stop offset="1" stop-color="#2FCB5A"/>
    </linearGradient>
  </defs>
</svg>
