
<svg xmlns="http://www.w3.org/2000/svg" width="32" height="32" viewBox="0 0 32 32" fill="none">
  <rect width="32" height="32" rx="6" fill="#1E88E5"/>
  <path d="M6 12C6 10.8954 6.89543 10 8 10H24C25.1046 10 26 10.8954 26 12V20C26 21.1046 25.1046 22 24 22H8C6.89543 22 6 21.1046 6 20V12Z" fill="#4CAF50"/>
  <path d="M24 12H26V15H24V12Z" fill="#1E88E5"/>
  <path d="M6 12H8V15H6V12Z" fill="#1E88E5"/>
  <path d="M13.2929 12.2929C13.6834 11.9024 14.3166 11.9024 14.7071 12.2929L19.7071 17.2929C20.0976 17.6834 20.0976 18.3166 19.7071 18.7071C19.3166 19.0976 18.6834 19.0976 18.2929 18.7071L14 14.4142L9.70711 18.7071C9.31658 19.0976 8.68342 19.0976 8.29289 18.7071C7.90237 18.3166 7.90237 17.6834 8.29289 17.2929L13.2929 12.2929Z" fill="white"/>
  <path d="M16 16C17.6569 16 19 14.6569 19 13C19 11.3431 17.6569 10 16 10C14.3431 10 13 11.3431 13 13C13 14.6569 14.3431 16 16 16Z" fill="white"/>
  <path d="M16 15C17.1046 15 18 14.1046 18 13C18 11.8954 17.1046 11 16 11C14.8954 11 14 11.8954 14 13C14 14.1046 14.8954 15 16 15Z" fill="#1E88E5"/>
  <path d="M14.5 12.5L17.5 13.5" stroke="white" stroke-linecap="round"/>
</svg>
  